<svg xmlns="http://www.w3.org/2000/svg" viewBox="0 0 900 560" role="img" aria-labelledby="title desc"><title id="title">Hexapod Robot</title><desc id="desc">Dark technical hexapod robot concept illustration.</desc><defs><radialGradient id="g" cx="50%" cy="45%" r="65%"><stop offset="0%" stop-color="#12323a"/><stop offset="55%" stop-color="#07101a"/><stop offset="100%" stop-color="#05070d"/></radialGradient><linearGradient id="c" x1="0" x2="1"><stop stop-color="#8bd3dd"/><stop offset="1" stop-color="#d5b46a"/></linearGradient></defs><rect width="900" height="560" rx="52" fill="url(#g)"/><path d="M80 430h740M130 365h640M180 300h540" stroke="#8bd3dd" stroke-opacity=".12"/><ellipse cx="450" cy="315" rx="190" ry="82" fill="#0b1724" stroke="url(#c)" stroke-width="6"/><rect x="320" y="250" width="260" height="90" rx="36" fill="#111d2c" stroke="#8bd3dd" stroke-width="5"/><circle cx="380" cy="292" r="14" fill="#8bd3dd"/><circle cx="520" cy="292" r="14" fill="#d5b46a"/><g fill="none" stroke="#8bd3dd" stroke-width="12" stroke-linecap="round" stroke-linejoin="round"><path d="M315 305 210 245 110 270"/><path d="M315 335 210 360 120 430"/><path d="M315 275 218 190 124 145"/><path d="M585 305 690 245 790 270"/><path d="M585 335 690 360 780 430"/><path d="M585 275 682 190 776 145"/></g><g fill="#d5b46a"><circle cx="110" cy="270" r="12"/><circle cx="120" cy="430" r="12"/><circle cx="124" cy="145" r="12"/><circle cx="790" cy="270" r="12"/><circle cx="780" cy="430" r="12"/><circle cx="776" cy="145" r="12"/></g><path d="M238 115h424" stroke="#d5b46a" stroke-opacity=".25" stroke-width="2"/><text x="450" y="488" text-anchor="middle" fill="#8bd3dd" font-family="monospace" font-size="24" letter-spacing="8">HEXAPOD TELEMETRY PLATFORM</text></svg>